<svg xmlns="http://www.w3.org/2000/svg" width="889" height="503" viewBox="0 0 889 503">
  <style>
    * { font-family: Arial, Helvetica, sans-serif; }
.main-title  { font-size:15px; font-weight:bold; }
.subtitle    { font-size:11px; }
.panel-title { font-size:14px; font-weight:bold; }
.row-title   { font-size:13px; font-weight:bold; }
.axis-lbl    { font-size:10px; fill:#333333; }
.cell-val    { font-size:15px; font-weight:bold; }
.cell-pct    { font-size: 9px; font-weight:bold; }
.cb-lbl      { font-size: 8px; fill:#444444; }
  </style>
  <rect width="889" height="503" fill="white"/>
  <text x="444.5" y="24" text-anchor="middle" class="main-title">Runtime Heatmaps: Effect of Density and Cycles</text>
  <text x="444.5" y="40" text-anchor="middle" class="subtitle">(average of completed runs only)</text>
  <text x="26.0" y="144.3" text-anchor="middle" class="row-title" transform="rotate(-90,26.0,144.3)">Large Graphs</text>
  <text x="197.2" y="61.0" text-anchor="middle" class="panel-title">Star</text>
  <text x="142.6" y="72.0" text-anchor="middle" class="axis-lbl">No cycles</text>
  <text x="251.8" y="72.0" text-anchor="middle" class="axis-lbl">Cycles</text>
  <text x="84.0" y="113.7" text-anchor="end" class="axis-lbl">Low density</text>
  <text x="84.0" y="183.0" text-anchor="end" class="axis-lbl">High density</text>
  <rect x="88.0" y="75.0" width="109.2" height="69.3" fill="#fff2c1"/>
  <text x="142.6" y="114.7" text-anchor="middle" class="cell-val" fill="#1e3a8a">32s</text>
  <rect x="88.0" y="75.0" width="109.2" height="69.3" fill="none" stroke="white" stroke-width="2"/>
  <rect x="197.2" y="75.0" width="109.2" height="69.3" fill="#fff0bc"/>
  <text x="251.8" y="114.7" text-anchor="middle" class="cell-val" fill="#1e3a8a">39s</text>
  <rect x="197.2" y="75.0" width="109.2" height="69.3" fill="none" stroke="white" stroke-width="2"/>
  <rect x="88.0" y="144.3" width="109.2" height="69.3" fill="#ffe9a6"/>
  <text x="142.6" y="175.0" text-anchor="middle" class="cell-val" fill="#1e3a8a">1.3m</text>
  <text x="142.6" y="194.0" text-anchor="middle" class="cell-pct" fill="#cc0000">66% timed out</text>
  <rect x="88.0" y="144.3" width="109.2" height="69.3" fill="none" stroke="white" stroke-width="2"/>
  <rect x="197.2" y="144.3" width="109.2" height="69.3" fill="#ce3b00"/>
  <text x="251.8" y="175.0" text-anchor="middle" class="cell-val" fill="white">2.6h</text>
  <text x="251.8" y="194.0" text-anchor="middle" class="cell-pct" fill="white">33% timed out</text>
  <rect x="197.2" y="144.3" width="109.2" height="69.3" fill="none" stroke="white" stroke-width="2"/>
  <rect x="88.0" y="75.0" width="218.4" height="138.6" fill="none" stroke="#999999" stroke-width="0.8"/>
  <text x="438.7" y="61.0" text-anchor="middle" class="panel-title">Full Star</text>
  <text x="384.1" y="72.0" text-anchor="middle" class="axis-lbl">No cycles</text>
  <text x="493.3" y="72.0" text-anchor="middle" class="axis-lbl">Cycles</text>
  <rect x="329.5" y="75.0" width="109.2" height="69.3" fill="#fff8d1"/>
  <text x="384.1" y="114.7" text-anchor="middle" class="cell-val" fill="#1e3a8a">19s</text>
  <rect x="329.5" y="75.0" width="109.2" height="69.3" fill="none" stroke="white" stroke-width="2"/>
  <rect x="438.7" y="75.0" width="109.2" height="69.3" fill="#ffe08c"/>
  <text x="493.3" y="114.7" text-anchor="middle" class="cell-val" fill="#1e3a8a">3.1m</text>
  <rect x="438.7" y="75.0" width="109.2" height="69.3" fill="none" stroke="white" stroke-width="2"/>
  <rect x="329.5" y="144.3" width="109.2" height="69.3" fill="#ffc756"/>
  <text x="384.1" y="184.0" text-anchor="middle" class="cell-val" fill="#1e3a8a">8.0m</text>
  <rect x="329.5" y="144.3" width="109.2" height="69.3" fill="none" stroke="white" stroke-width="2"/>
  <rect x="438.7" y="144.3" width="109.2" height="69.3" fill="#e96d00"/>
  <text x="493.3" y="175.0" text-anchor="middle" class="cell-val" fill="white">1.2h</text>
  <text x="493.3" y="194.0" text-anchor="middle" class="cell-pct" fill="white">66% timed out</text>
  <rect x="438.7" y="144.3" width="109.2" height="69.3" fill="none" stroke="white" stroke-width="2"/>
  <rect x="329.5" y="75.0" width="218.4" height="138.6" fill="none" stroke="#999999" stroke-width="0.8"/>
  <text x="680.2" y="61.0" text-anchor="middle" class="panel-title">Manual</text>
  <text x="625.6" y="72.0" text-anchor="middle" class="axis-lbl">No cycles</text>
  <text x="734.8" y="72.0" text-anchor="middle" class="axis-lbl">Cycles</text>
  <rect x="571.0" y="75.0" width="109.2" height="69.3" fill="#a01b00"/>
  <text x="625.6" y="105.7" text-anchor="middle" class="cell-val" fill="white">5.4h</text>
  <text x="625.6" y="124.7" text-anchor="middle" class="cell-pct" fill="#ffbbbb">33% timed out</text>
  <rect x="571.0" y="75.0" width="109.2" height="69.3" fill="none" stroke="white" stroke-width="2"/>
  <rect x="680.2" y="75.0" width="109.2" height="69.3" fill="#7d0200"/>
  <text x="734.8" y="105.7" text-anchor="middle" class="cell-val" fill="white">9.5h</text>
  <text x="734.8" y="124.7" text-anchor="middle" class="cell-pct" fill="#ffbbbb">66% timed out</text>
  <rect x="680.2" y="75.0" width="109.2" height="69.3" fill="none" stroke="white" stroke-width="2"/>
  <rect x="571.0" y="144.3" width="109.2" height="69.3" fill="#aaaaaa"/>
  <text x="625.6" y="175.0" text-anchor="middle" class="cell-val" fill="white">DNF</text>
  <text x="625.6" y="192.0" text-anchor="middle" class="cell-pct" fill="#cc0000">100% timed out</text>
  <rect x="571.0" y="144.3" width="109.2" height="69.3" fill="none" stroke="white" stroke-width="2"/>
  <rect x="680.2" y="144.3" width="109.2" height="69.3" fill="#aaaaaa"/>
  <text x="734.8" y="175.0" text-anchor="middle" class="cell-val" fill="white">DNF</text>
  <text x="734.8" y="192.0" text-anchor="middle" class="cell-pct" fill="#cc0000">100% timed out</text>
  <rect x="680.2" y="144.3" width="109.2" height="69.3" fill="none" stroke="white" stroke-width="2"/>
  <rect x="571.0" y="75.0" width="218.4" height="138.6" fill="none" stroke="#999999" stroke-width="0.8"/>
  <rect x="795.4" y="211.3" width="14" height="2.8" fill="#fffcdd"/>
  <rect x="795.4" y="209.0" width="14" height="2.8" fill="#fffad9"/>
  <rect x="795.4" y="206.7" width="14" height="2.8" fill="#fff9d5"/>
  <rect x="795.4" y="204.4" width="14" height="2.8" fill="#fff8d1"/>
  <rect x="795.4" y="202.0" width="14" height="2.8" fill="#fff6cd"/>
  <rect x="795.4" y="199.7" width="14" height="2.8" fill="#fff5c9"/>
  <rect x="795.4" y="197.4" width="14" height="2.8" fill="#fff4c5"/>
  <rect x="795.4" y="195.1" width="14" height="2.8" fill="#fff2c1"/>
  <rect x="795.4" y="192.8" width="14" height="2.8" fill="#fff1bd"/>
  <rect x="795.4" y="190.5" width="14" height="2.8" fill="#ffefb9"/>
  <rect x="795.4" y="188.2" width="14" height="2.8" fill="#ffeeb5"/>
  <rect x="795.4" y="185.9" width="14" height="2.8" fill="#ffedb0"/>
  <rect x="795.4" y="183.6" width="14" height="2.8" fill="#ffebac"/>
  <rect x="795.4" y="181.3" width="14" height="2.8" fill="#ffeaa8"/>
  <rect x="795.4" y="178.9" width="14" height="2.8" fill="#ffe8a4"/>
  <rect x="795.4" y="176.6" width="14" height="2.8" fill="#ffe7a0"/>
  <rect x="795.4" y="174.3" width="14" height="2.8" fill="#ffe69c"/>
  <rect x="795.4" y="172.0" width="14" height="2.8" fill="#ffe498"/>
  <rect x="795.4" y="169.7" width="14" height="2.8" fill="#ffe394"/>
  <rect x="795.4" y="167.4" width="14" height="2.8" fill="#ffe290"/>
  <rect x="795.4" y="165.1" width="14" height="2.8" fill="#ffe08c"/>
  <rect x="795.4" y="162.8" width="14" height="2.8" fill="#ffde86"/>
  <rect x="795.4" y="160.5" width="14" height="2.8" fill="#ffda7e"/>
  <rect x="795.4" y="158.2" width="14" height="2.8" fill="#ffd676"/>
  <rect x="795.4" y="155.8" width="14" height="2.8" fill="#ffd26f"/>
  <rect x="795.4" y="153.5" width="14" height="2.8" fill="#ffcf67"/>
  <rect x="795.4" y="151.2" width="14" height="2.8" fill="#ffcb5f"/>
  <rect x="795.4" y="148.9" width="14" height="2.8" fill="#ffc758"/>
  <rect x="795.4" y="146.6" width="14" height="2.8" fill="#ffc450"/>
  <rect x="795.4" y="144.3" width="14" height="2.8" fill="#ffc048"/>
  <rect x="795.4" y="142.0" width="14" height="2.8" fill="#ffbc41"/>
  <rect x="795.4" y="139.7" width="14" height="2.8" fill="#ffb839"/>
  <rect x="795.4" y="137.4" width="14" height="2.8" fill="#ffb531"/>
  <rect x="795.4" y="135.1" width="14" height="2.8" fill="#ffb12a"/>
  <rect x="795.4" y="132.8" width="14" height="2.8" fill="#ffad22"/>
  <rect x="795.4" y="130.4" width="14" height="2.8" fill="#ffaa1a"/>
  <rect x="795.4" y="128.1" width="14" height="2.8" fill="#ffa613"/>
  <rect x="795.4" y="125.8" width="14" height="2.8" fill="#ffa20b"/>
  <rect x="795.4" y="123.5" width="14" height="2.8" fill="#ff9e03"/>
  <rect x="795.4" y="121.2" width="14" height="2.8" fill="#fc9800"/>
  <rect x="795.4" y="118.9" width="14" height="2.8" fill="#f88f00"/>
  <rect x="795.4" y="116.6" width="14" height="2.8" fill="#f48600"/>
  <rect x="795.4" y="114.3" width="14" height="2.8" fill="#f07d00"/>
  <rect x="795.4" y="112.0" width="14" height="2.8" fill="#ec7300"/>
  <rect x="795.4" y="109.7" width="14" height="2.8" fill="#e76a00"/>
  <rect x="795.4" y="107.3" width="14" height="2.8" fill="#e36100"/>
  <rect x="795.4" y="105.0" width="14" height="2.8" fill="#df5800"/>
  <rect x="795.4" y="102.7" width="14" height="2.8" fill="#db4f00"/>
  <rect x="795.4" y="100.4" width="14" height="2.8" fill="#d64600"/>
  <rect x="795.4" y="98.1" width="14" height="2.8" fill="#d13e00"/>
  <rect x="795.4" y="95.8" width="14" height="2.8" fill="#c93800"/>
  <rect x="795.4" y="93.5" width="14" height="2.8" fill="#c03200"/>
  <rect x="795.4" y="91.2" width="14" height="2.8" fill="#b82c00"/>
  <rect x="795.4" y="88.9" width="14" height="2.8" fill="#b02600"/>
  <rect x="795.4" y="86.6" width="14" height="2.8" fill="#a72000"/>
  <rect x="795.4" y="84.2" width="14" height="2.8" fill="#9f1a00"/>
  <rect x="795.4" y="81.9" width="14" height="2.8" fill="#971400"/>
  <rect x="795.4" y="79.6" width="14" height="2.8" fill="#8e0e00"/>
  <rect x="795.4" y="77.3" width="14" height="2.8" fill="#860800"/>
  <rect x="795.4" y="75.0" width="14" height="2.8" fill="#7e0200"/>
  <rect x="795.4" y="75.0" width="14" height="138.6" fill="none" stroke="#888888" stroke-width="0.6"/>
  <line x1="809.4" y1="197.7" x2="814.4" y2="197.7" stroke="#555555" stroke-width="0.8"/>
  <text x="816.4" y="200.7" class="cb-lbl">30s</text>
  <line x1="809.4" y1="157.9" x2="814.4" y2="157.9" stroke="#555555" stroke-width="0.8"/>
  <text x="816.4" y="160.9" class="cb-lbl">5m</text>
  <line x1="809.4" y1="126.9" x2="814.4" y2="126.9" stroke="#555555" stroke-width="0.8"/>
  <text x="816.4" y="129.9" class="cb-lbl">30m</text>
  <line x1="809.4" y1="114.9" x2="814.4" y2="114.9" stroke="#555555" stroke-width="0.8"/>
  <text x="816.4" y="117.9" class="cb-lbl">1h</text>
  <line x1="809.4" y1="87.0" x2="814.4" y2="87.0" stroke="#555555" stroke-width="0.8"/>
  <text x="816.4" y="90.0" class="cb-lbl">5h</text>
  <line x1="809.4" y1="75.0" x2="814.4" y2="75.0" stroke="#555555" stroke-width="0.8"/>
  <text x="816.4" y="78.0" class="cb-lbl">&gt;10h</text>
  <line x1="10" y1="261.9" x2="879" y2="261.9" stroke="#cccccc" stroke-width="1" stroke-dasharray="6,4"/>
  <text x="26.0" y="379.5" text-anchor="middle" class="row-title" transform="rotate(-90,26.0,379.5)">Small Graphs</text>
  <text x="142.6" y="307.2" text-anchor="middle" class="axis-lbl">No cycles</text>
  <text x="251.8" y="307.2" text-anchor="middle" class="axis-lbl">Cycles</text>
  <text x="84.0" y="348.8" text-anchor="end" class="axis-lbl">Low density</text>
  <text x="84.0" y="418.1" text-anchor="end" class="axis-lbl">High density</text>
  <rect x="88.0" y="310.2" width="109.2" height="69.3" fill="#fff0ba"/>
  <text x="142.6" y="349.8" text-anchor="middle" class="cell-val" fill="#1e3a8a">3s</text>
  <rect x="88.0" y="310.2" width="109.2" height="69.3" fill="none" stroke="white" stroke-width="2"/>
  <rect x="197.2" y="310.2" width="109.2" height="69.3" fill="#ffe18e"/>
  <text x="251.8" y="349.8" text-anchor="middle" class="cell-val" fill="#1e3a8a">16s</text>
  <rect x="197.2" y="310.2" width="109.2" height="69.3" fill="none" stroke="white" stroke-width="2"/>
  <rect x="88.0" y="379.5" width="109.2" height="69.3" fill="#ffba3d"/>
  <text x="142.6" y="419.1" text-anchor="middle" class="cell-val" fill="white">1.7m</text>
  <rect x="88.0" y="379.5" width="109.2" height="69.3" fill="none" stroke="white" stroke-width="2"/>
  <rect x="197.2" y="379.5" width="109.2" height="69.3" fill="#ffb634"/>
  <text x="251.8" y="419.1" text-anchor="middle" class="cell-val" fill="white">2.0m</text>
  <rect x="197.2" y="379.5" width="109.2" height="69.3" fill="none" stroke="white" stroke-width="2"/>
  <rect x="88.0" y="310.2" width="218.4" height="138.6" fill="none" stroke="#999999" stroke-width="0.8"/>
  <text x="384.1" y="307.2" text-anchor="middle" class="axis-lbl">No cycles</text>
  <text x="493.3" y="307.2" text-anchor="middle" class="axis-lbl">Cycles</text>
  <rect x="329.5" y="310.2" width="109.2" height="69.3" fill="#ffe8a3"/>
  <text x="384.1" y="349.8" text-anchor="middle" class="cell-val" fill="#1e3a8a">7s</text>
  <rect x="329.5" y="310.2" width="109.2" height="69.3" fill="none" stroke="white" stroke-width="2"/>
  <rect x="438.7" y="310.2" width="109.2" height="69.3" fill="#ffebab"/>
  <text x="493.3" y="349.8" text-anchor="middle" class="cell-val" fill="#1e3a8a">5s</text>
  <rect x="438.7" y="310.2" width="109.2" height="69.3" fill="none" stroke="white" stroke-width="2"/>
  <rect x="329.5" y="379.5" width="109.2" height="69.3" fill="#ffcc62"/>
  <text x="384.1" y="419.1" text-anchor="middle" class="cell-val" fill="#1e3a8a">45s</text>
  <rect x="329.5" y="379.5" width="109.2" height="69.3" fill="none" stroke="white" stroke-width="2"/>
  <rect x="438.7" y="379.5" width="109.2" height="69.3" fill="#ffedb0"/>
  <text x="493.3" y="419.1" text-anchor="middle" class="cell-val" fill="#1e3a8a">4s</text>
  <rect x="438.7" y="379.5" width="109.2" height="69.3" fill="none" stroke="white" stroke-width="2"/>
  <rect x="329.5" y="310.2" width="218.4" height="138.6" fill="none" stroke="#999999" stroke-width="0.8"/>
  <text x="625.6" y="307.2" text-anchor="middle" class="axis-lbl">No cycles</text>
  <text x="734.8" y="307.2" text-anchor="middle" class="axis-lbl">Cycles</text>
  <rect x="571.0" y="310.2" width="109.2" height="69.3" fill="#ffda7f"/>
  <text x="625.6" y="349.8" text-anchor="middle" class="cell-val" fill="#1e3a8a">24s</text>
  <rect x="571.0" y="310.2" width="109.2" height="69.3" fill="none" stroke="white" stroke-width="2"/>
  <rect x="680.2" y="310.2" width="109.2" height="69.3" fill="#ffb32f"/>
  <text x="734.8" y="349.8" text-anchor="middle" class="cell-val" fill="white">2.3m</text>
  <rect x="680.2" y="310.2" width="109.2" height="69.3" fill="none" stroke="white" stroke-width="2"/>
  <rect x="571.0" y="379.5" width="109.2" height="69.3" fill="#ff9d00"/>
  <text x="625.6" y="419.1" text-anchor="middle" class="cell-val" fill="white">6.2m</text>
  <rect x="571.0" y="379.5" width="109.2" height="69.3" fill="none" stroke="white" stroke-width="2"/>
  <rect x="680.2" y="379.5" width="109.2" height="69.3" fill="#ac2300"/>
  <text x="734.8" y="419.1" text-anchor="middle" class="cell-val" fill="white">1.2h</text>
  <rect x="680.2" y="379.5" width="109.2" height="69.3" fill="none" stroke="white" stroke-width="2"/>
  <rect x="571.0" y="310.2" width="218.4" height="138.6" fill="none" stroke="#999999" stroke-width="0.8"/>
  <rect x="795.4" y="446.5" width="14" height="2.8" fill="#fffcdd"/>
  <rect x="795.4" y="444.2" width="14" height="2.8" fill="#fffad9"/>
  <rect x="795.4" y="441.9" width="14" height="2.8" fill="#fff9d5"/>
  <rect x="795.4" y="439.6" width="14" height="2.8" fill="#fff8d1"/>
  <rect x="795.4" y="437.2" width="14" height="2.8" fill="#fff6cd"/>
  <rect x="795.4" y="434.9" width="14" height="2.8" fill="#fff5c9"/>
  <rect x="795.4" y="432.6" width="14" height="2.8" fill="#fff4c5"/>
  <rect x="795.4" y="430.3" width="14" height="2.8" fill="#fff2c1"/>
  <rect x="795.4" y="428.0" width="14" height="2.8" fill="#fff1bd"/>
  <rect x="795.4" y="425.7" width="14" height="2.8" fill="#ffefb9"/>
  <rect x="795.4" y="423.4" width="14" height="2.8" fill="#ffeeb5"/>
  <rect x="795.4" y="421.1" width="14" height="2.8" fill="#ffedb0"/>
  <rect x="795.4" y="418.8" width="14" height="2.8" fill="#ffebac"/>
  <rect x="795.4" y="416.5" width="14" height="2.8" fill="#ffeaa8"/>
  <rect x="795.4" y="414.1" width="14" height="2.8" fill="#ffe8a4"/>
  <rect x="795.4" y="411.8" width="14" height="2.8" fill="#ffe7a0"/>
  <rect x="795.4" y="409.5" width="14" height="2.8" fill="#ffe69c"/>
  <rect x="795.4" y="407.2" width="14" height="2.8" fill="#ffe498"/>
  <rect x="795.4" y="404.9" width="14" height="2.8" fill="#ffe394"/>
  <rect x="795.4" y="402.6" width="14" height="2.8" fill="#ffe290"/>
  <rect x="795.4" y="400.3" width="14" height="2.8" fill="#ffe08c"/>
  <rect x="795.4" y="398.0" width="14" height="2.8" fill="#ffde86"/>
  <rect x="795.4" y="395.7" width="14" height="2.8" fill="#ffda7e"/>
  <rect x="795.4" y="393.4" width="14" height="2.8" fill="#ffd676"/>
  <rect x="795.4" y="391.0" width="14" height="2.8" fill="#ffd26f"/>
  <rect x="795.4" y="388.7" width="14" height="2.8" fill="#ffcf67"/>
  <rect x="795.4" y="386.4" width="14" height="2.8" fill="#ffcb5f"/>
  <rect x="795.4" y="384.1" width="14" height="2.8" fill="#ffc758"/>
  <rect x="795.4" y="381.8" width="14" height="2.8" fill="#ffc450"/>
  <rect x="795.4" y="379.5" width="14" height="2.8" fill="#ffc048"/>
  <rect x="795.4" y="377.2" width="14" height="2.8" fill="#ffbc41"/>
  <rect x="795.4" y="374.9" width="14" height="2.8" fill="#ffb839"/>
  <rect x="795.4" y="372.6" width="14" height="2.8" fill="#ffb531"/>
  <rect x="795.4" y="370.3" width="14" height="2.8" fill="#ffb12a"/>
  <rect x="795.4" y="367.9" width="14" height="2.8" fill="#ffad22"/>
  <rect x="795.4" y="365.6" width="14" height="2.8" fill="#ffaa1a"/>
  <rect x="795.4" y="363.3" width="14" height="2.8" fill="#ffa613"/>
  <rect x="795.4" y="361.0" width="14" height="2.8" fill="#ffa20b"/>
  <rect x="795.4" y="358.7" width="14" height="2.8" fill="#ff9e03"/>
  <rect x="795.4" y="356.4" width="14" height="2.8" fill="#fc9800"/>
  <rect x="795.4" y="354.1" width="14" height="2.8" fill="#f88f00"/>
  <rect x="795.4" y="351.8" width="14" height="2.8" fill="#f48600"/>
  <rect x="795.4" y="349.5" width="14" height="2.8" fill="#f07d00"/>
  <rect x="795.4" y="347.2" width="14" height="2.8" fill="#ec7300"/>
  <rect x="795.4" y="344.8" width="14" height="2.8" fill="#e76a00"/>
  <rect x="795.4" y="342.5" width="14" height="2.8" fill="#e36100"/>
  <rect x="795.4" y="340.2" width="14" height="2.8" fill="#df5800"/>
  <rect x="795.4" y="337.9" width="14" height="2.8" fill="#db4f00"/>
  <rect x="795.4" y="335.6" width="14" height="2.8" fill="#d64600"/>
  <rect x="795.4" y="333.3" width="14" height="2.8" fill="#d13e00"/>
  <rect x="795.4" y="331.0" width="14" height="2.8" fill="#c93800"/>
  <rect x="795.4" y="328.7" width="14" height="2.8" fill="#c03200"/>
  <rect x="795.4" y="326.4" width="14" height="2.8" fill="#b82c00"/>
  <rect x="795.4" y="324.1" width="14" height="2.8" fill="#b02600"/>
  <rect x="795.4" y="321.8" width="14" height="2.8" fill="#a72000"/>
  <rect x="795.4" y="319.4" width="14" height="2.8" fill="#9f1a00"/>
  <rect x="795.4" y="317.1" width="14" height="2.8" fill="#971400"/>
  <rect x="795.4" y="314.8" width="14" height="2.8" fill="#8e0e00"/>
  <rect x="795.4" y="312.5" width="14" height="2.8" fill="#860800"/>
  <rect x="795.4" y="310.2" width="14" height="2.8" fill="#7e0200"/>
  <rect x="795.4" y="310.2" width="14" height="138.6" fill="none" stroke="#888888" stroke-width="0.6"/>
  <line x1="809.4" y1="426.3" x2="814.4" y2="426.3" stroke="#555555" stroke-width="0.8"/>
  <text x="816.4" y="429.3" class="cb-lbl">3s</text>
  <line x1="809.4" y1="406.9" x2="814.4" y2="406.9" stroke="#555555" stroke-width="0.8"/>
  <text x="816.4" y="409.9" class="cb-lbl">12s</text>
  <line x1="809.4" y1="374.6" x2="814.4" y2="374.6" stroke="#555555" stroke-width="0.8"/>
  <text x="816.4" y="377.6" class="cb-lbl">2m</text>
  <line x1="809.4" y1="342.4" x2="814.4" y2="342.4" stroke="#555555" stroke-width="0.8"/>
  <text x="816.4" y="345.4" class="cb-lbl">20m</text>
  <line x1="809.4" y1="310.2" x2="814.4" y2="310.2" stroke="#555555" stroke-width="0.8"/>
  <text x="816.4" y="313.2" class="cb-lbl">3h</text>
</svg>
